# xmcd
#
# Track frame offsets:
#	150
#	22440
#	37242
#	54305
#	70662
#	88882
#	103747
#	117345
#	132125
#	145670
#	160730
#	176147
#
# Disc length: 2583 seconds
#
# Revision: 3
# Processed by: cddbd v1.5.2PL0 Copyright (c) Steve Scherf et al.
# Submitted via: audiograbber 1.83.01
#
DISCID=ad0a150c
DTITLE=Lawnie Wallace - Thought I Was Dreaming
DYEAR=1996
DGENRE=Country
TTITLE0=Little Lies, Big Trouble
TTITLE1=Fine Line
TTITLE2=Wild Child
TTITLE3=The Heartache
TTITLE4=Thought I Was Dreaming
TTITLE5=Ugly Duckling
TTITLE6=Runaway Heart
TTITLE7=New Attitude
TTITLE8=Rhythm of Love
TTITLE9=Paradise
TTITLE10=Mother's Love
TTITLE11=Heart of Our Hearts
EXTD=
EXTT0=
EXTT1=
EXTT2=
EXTT3=
EXTT4=
EXTT5=
EXTT6=
EXTT7=
EXTT8=
EXTT9=
EXTT10=
EXTT11=
PLAYORDER=
